<mxfile host="app.diagrams.net" agent="Mozilla/5.0 (Windows NT 10.0; Win64; x64) AppleWebKit/537.36 (KHTML, like Gecko) Chrome/129.0.0.0 Safari/537.36" version="24.7.16">
  <diagram name="Page-1" id="boNI-i09FJV-j0tQHAIW">
    <mxGraphModel dx="2064" dy="584" grid="1" gridSize="10" guides="1" tooltips="1" connect="1" arrows="1" fold="1" page="1" pageScale="1" pageWidth="850" pageHeight="1100" math="0" shadow="0">
      <root>
        <mxCell id="0" />
        <mxCell id="1" parent="0" />
        <mxCell id="xQhjASEAg2ooTTKnkXVU-3" value="" style="edgeStyle=orthogonalEdgeStyle;rounded=0;orthogonalLoop=1;jettySize=auto;html=1;" edge="1" parent="1" source="xQhjASEAg2ooTTKnkXVU-1" target="xQhjASEAg2ooTTKnkXVU-2">
          <mxGeometry relative="1" as="geometry" />
        </mxCell>
        <mxCell id="xQhjASEAg2ooTTKnkXVU-4" value="Akibat" style="edgeLabel;html=1;align=center;verticalAlign=middle;resizable=0;points=[];" vertex="1" connectable="0" parent="xQhjASEAg2ooTTKnkXVU-3">
          <mxGeometry x="0.015" y="1" relative="1" as="geometry">
            <mxPoint as="offset" />
          </mxGeometry>
        </mxCell>
        <mxCell id="xQhjASEAg2ooTTKnkXVU-6" value="" style="edgeStyle=orthogonalEdgeStyle;rounded=0;orthogonalLoop=1;jettySize=auto;html=1;" edge="1" parent="1" source="xQhjASEAg2ooTTKnkXVU-1" target="xQhjASEAg2ooTTKnkXVU-5">
          <mxGeometry relative="1" as="geometry" />
        </mxCell>
        <mxCell id="xQhjASEAg2ooTTKnkXVU-7" value="Dampak" style="edgeLabel;html=1;align=center;verticalAlign=middle;resizable=0;points=[];" vertex="1" connectable="0" parent="xQhjASEAg2ooTTKnkXVU-6">
          <mxGeometry x="-0.085" y="-1" relative="1" as="geometry">
            <mxPoint as="offset" />
          </mxGeometry>
        </mxCell>
        <mxCell id="xQhjASEAg2ooTTKnkXVU-10" value="" style="edgeStyle=orthogonalEdgeStyle;rounded=0;orthogonalLoop=1;jettySize=auto;html=1;" edge="1" parent="1" source="xQhjASEAg2ooTTKnkXVU-1" target="xQhjASEAg2ooTTKnkXVU-9">
          <mxGeometry relative="1" as="geometry" />
        </mxCell>
        <mxCell id="xQhjASEAg2ooTTKnkXVU-11" value="Diperlukan" style="edgeLabel;html=1;align=center;verticalAlign=middle;resizable=0;points=[];" vertex="1" connectable="0" parent="xQhjASEAg2ooTTKnkXVU-10">
          <mxGeometry x="-0.095" y="-1" relative="1" as="geometry">
            <mxPoint as="offset" />
          </mxGeometry>
        </mxCell>
        <mxCell id="xQhjASEAg2ooTTKnkXVU-1" value="Bencana Banjir" style="rounded=0;whiteSpace=wrap;html=1;fillColor=none;" vertex="1" parent="1">
          <mxGeometry x="230" y="70" width="120" height="60" as="geometry" />
        </mxCell>
        <mxCell id="xQhjASEAg2ooTTKnkXVU-13" value="" style="edgeStyle=orthogonalEdgeStyle;rounded=0;orthogonalLoop=1;jettySize=auto;html=1;" edge="1" parent="1" source="xQhjASEAg2ooTTKnkXVU-2" target="xQhjASEAg2ooTTKnkXVU-12">
          <mxGeometry relative="1" as="geometry" />
        </mxCell>
        <mxCell id="xQhjASEAg2ooTTKnkXVU-14" value="Disebabkan" style="edgeLabel;html=1;align=center;verticalAlign=middle;resizable=0;points=[];" vertex="1" connectable="0" parent="xQhjASEAg2ooTTKnkXVU-13">
          <mxGeometry x="0.045" y="-2" relative="1" as="geometry">
            <mxPoint as="offset" />
          </mxGeometry>
        </mxCell>
        <mxCell id="xQhjASEAg2ooTTKnkXVU-31" value="" style="edgeStyle=orthogonalEdgeStyle;rounded=0;orthogonalLoop=1;jettySize=auto;html=1;" edge="1" parent="1" source="xQhjASEAg2ooTTKnkXVU-2" target="xQhjASEAg2ooTTKnkXVU-30">
          <mxGeometry relative="1" as="geometry" />
        </mxCell>
        <mxCell id="xQhjASEAg2ooTTKnkXVU-32" value="Menyebabkan" style="edgeLabel;html=1;align=center;verticalAlign=middle;resizable=0;points=[];" vertex="1" connectable="0" parent="xQhjASEAg2ooTTKnkXVU-31">
          <mxGeometry x="-0.0559" relative="1" as="geometry">
            <mxPoint as="offset" />
          </mxGeometry>
        </mxCell>
        <mxCell id="xQhjASEAg2ooTTKnkXVU-2" value="Curah Hujan Tinggi&amp;nbsp;" style="rounded=0;whiteSpace=wrap;html=1;fillColor=none;" vertex="1" parent="1">
          <mxGeometry x="570" y="70" width="120" height="60" as="geometry" />
        </mxCell>
        <mxCell id="xQhjASEAg2ooTTKnkXVU-5" value="&lt;ul&gt;&lt;li&gt;&amp;nbsp;Kerusakan Fisik Perkotaan&lt;/li&gt;&lt;li&gt;Terganggunya aktivitas&lt;/li&gt;&lt;/ul&gt;" style="rounded=0;whiteSpace=wrap;html=1;fillColor=none;align=left;" vertex="1" parent="1">
          <mxGeometry x="180" y="220" width="220" height="60" as="geometry" />
        </mxCell>
        <mxCell id="xQhjASEAg2ooTTKnkXVU-16" value="" style="edgeStyle=orthogonalEdgeStyle;rounded=0;orthogonalLoop=1;jettySize=auto;html=1;" edge="1" parent="1" source="xQhjASEAg2ooTTKnkXVU-9" target="xQhjASEAg2ooTTKnkXVU-15">
          <mxGeometry relative="1" as="geometry" />
        </mxCell>
        <mxCell id="xQhjASEAg2ooTTKnkXVU-19" value="Mitigasi" style="edgeLabel;html=1;align=center;verticalAlign=middle;resizable=0;points=[];" vertex="1" connectable="0" parent="xQhjASEAg2ooTTKnkXVU-16">
          <mxGeometry x="0.012" relative="1" as="geometry">
            <mxPoint as="offset" />
          </mxGeometry>
        </mxCell>
        <mxCell id="xQhjASEAg2ooTTKnkXVU-18" value="" style="edgeStyle=orthogonalEdgeStyle;rounded=0;orthogonalLoop=1;jettySize=auto;html=1;" edge="1" parent="1" source="xQhjASEAg2ooTTKnkXVU-9" target="xQhjASEAg2ooTTKnkXVU-17">
          <mxGeometry relative="1" as="geometry" />
        </mxCell>
        <mxCell id="xQhjASEAg2ooTTKnkXVU-20" value="Adaptasi" style="edgeLabel;html=1;align=center;verticalAlign=middle;resizable=0;points=[];" vertex="1" connectable="0" parent="xQhjASEAg2ooTTKnkXVU-18">
          <mxGeometry x="0.0089" y="1" relative="1" as="geometry">
            <mxPoint as="offset" />
          </mxGeometry>
        </mxCell>
        <mxCell id="xQhjASEAg2ooTTKnkXVU-9" value="Mitigasi &amp;amp; Adaptasi" style="rounded=0;whiteSpace=wrap;html=1;fillColor=none;" vertex="1" parent="1">
          <mxGeometry x="-110" y="70" width="120" height="60" as="geometry" />
        </mxCell>
        <mxCell id="xQhjASEAg2ooTTKnkXVU-12" value="Anomali Cuaca dan/atau Musim penghujan" style="rounded=0;whiteSpace=wrap;html=1;fillColor=none;" vertex="1" parent="1">
          <mxGeometry x="570" y="210" width="120" height="60" as="geometry" />
        </mxCell>
        <mxCell id="xQhjASEAg2ooTTKnkXVU-22" value="" style="edgeStyle=orthogonalEdgeStyle;rounded=0;orthogonalLoop=1;jettySize=auto;html=1;entryX=0;entryY=0.5;entryDx=0;entryDy=0;" edge="1" parent="1" source="xQhjASEAg2ooTTKnkXVU-15" target="xQhjASEAg2ooTTKnkXVU-21">
          <mxGeometry relative="1" as="geometry">
            <Array as="points">
              <mxPoint x="-160" y="400" />
            </Array>
          </mxGeometry>
        </mxCell>
        <mxCell id="xQhjASEAg2ooTTKnkXVU-23" value="diperlukan" style="edgeLabel;html=1;align=center;verticalAlign=middle;resizable=0;points=[];" vertex="1" connectable="0" parent="xQhjASEAg2ooTTKnkXVU-22">
          <mxGeometry x="-0.005" y="-4" relative="1" as="geometry">
            <mxPoint as="offset" />
          </mxGeometry>
        </mxCell>
        <mxCell id="xQhjASEAg2ooTTKnkXVU-38" value="" style="edgeStyle=orthogonalEdgeStyle;rounded=0;orthogonalLoop=1;jettySize=auto;html=1;entryX=0;entryY=0.5;entryDx=0;entryDy=0;exitX=0.5;exitY=1;exitDx=0;exitDy=0;" edge="1" parent="1" source="xQhjASEAg2ooTTKnkXVU-9" target="xQhjASEAg2ooTTKnkXVU-39">
          <mxGeometry relative="1" as="geometry">
            <mxPoint x="430" y="480" as="targetPoint" />
            <Array as="points">
              <mxPoint x="-50" y="150" />
              <mxPoint x="130" y="150" />
              <mxPoint x="130" y="320" />
              <mxPoint x="430" y="320" />
              <mxPoint x="430" y="390" />
            </Array>
          </mxGeometry>
        </mxCell>
        <mxCell id="xQhjASEAg2ooTTKnkXVU-40" value="Upaya" style="edgeLabel;html=1;align=center;verticalAlign=middle;resizable=0;points=[];" vertex="1" connectable="0" parent="xQhjASEAg2ooTTKnkXVU-38">
          <mxGeometry x="-0.1028" y="2" relative="1" as="geometry">
            <mxPoint as="offset" />
          </mxGeometry>
        </mxCell>
        <mxCell id="xQhjASEAg2ooTTKnkXVU-15" value="Prediksi curah hujan, Tinggi muka air sungai, dan debit&amp;nbsp;" style="rounded=0;whiteSpace=wrap;html=1;fillColor=none;" vertex="1" parent="1">
          <mxGeometry x="-220" y="220" width="120" height="60" as="geometry" />
        </mxCell>
        <mxCell id="xQhjASEAg2ooTTKnkXVU-17" value="Membangun infrastruktur drainase yang baik" style="rounded=0;whiteSpace=wrap;html=1;fillColor=none;" vertex="1" parent="1">
          <mxGeometry x="-20" y="220" width="120" height="60" as="geometry" />
        </mxCell>
        <mxCell id="xQhjASEAg2ooTTKnkXVU-25" value="" style="edgeStyle=orthogonalEdgeStyle;rounded=0;orthogonalLoop=1;jettySize=auto;html=1;" edge="1" parent="1" source="xQhjASEAg2ooTTKnkXVU-21" target="xQhjASEAg2ooTTKnkXVU-24">
          <mxGeometry relative="1" as="geometry" />
        </mxCell>
        <mxCell id="xQhjASEAg2ooTTKnkXVU-29" value="untuk" style="edgeLabel;html=1;align=center;verticalAlign=middle;resizable=0;points=[];" vertex="1" connectable="0" parent="xQhjASEAg2ooTTKnkXVU-25">
          <mxGeometry x="-0.0397" relative="1" as="geometry">
            <mxPoint as="offset" />
          </mxGeometry>
        </mxCell>
        <mxCell id="xQhjASEAg2ooTTKnkXVU-27" value="" style="edgeStyle=orthogonalEdgeStyle;rounded=0;orthogonalLoop=1;jettySize=auto;html=1;" edge="1" parent="1" source="xQhjASEAg2ooTTKnkXVU-21" target="xQhjASEAg2ooTTKnkXVU-26">
          <mxGeometry relative="1" as="geometry">
            <Array as="points">
              <mxPoint x="-50" y="470" />
              <mxPoint x="-50" y="470" />
            </Array>
          </mxGeometry>
        </mxCell>
        <mxCell id="xQhjASEAg2ooTTKnkXVU-28" value="metode" style="edgeLabel;html=1;align=center;verticalAlign=middle;resizable=0;points=[];" vertex="1" connectable="0" parent="xQhjASEAg2ooTTKnkXVU-27">
          <mxGeometry x="0.0265" y="-2" relative="1" as="geometry">
            <mxPoint as="offset" />
          </mxGeometry>
        </mxCell>
        <mxCell id="xQhjASEAg2ooTTKnkXVU-21" value="Perhitungan" style="rounded=0;whiteSpace=wrap;html=1;fillColor=none;" vertex="1" parent="1">
          <mxGeometry x="-110" y="370" width="120" height="60" as="geometry" />
        </mxCell>
        <mxCell id="xQhjASEAg2ooTTKnkXVU-24" value="Prediksi Curah Hujan di DAS Kali Pepe&amp;nbsp;" style="rounded=0;whiteSpace=wrap;html=1;fillColor=none;" vertex="1" parent="1">
          <mxGeometry x="170" y="370" width="120" height="60" as="geometry" />
        </mxCell>
        <mxCell id="xQhjASEAg2ooTTKnkXVU-26" value="RNN LSTM" style="rounded=0;whiteSpace=wrap;html=1;fillColor=none;" vertex="1" parent="1">
          <mxGeometry x="-110" y="490" width="120" height="60" as="geometry" />
        </mxCell>
        <mxCell id="xQhjASEAg2ooTTKnkXVU-30" value="&lt;ul&gt;&lt;li&gt;Meningkatnya tinggi permukaan air sungai&lt;/li&gt;&lt;li&gt;Meningkatnya Debit aliran sungai&lt;/li&gt;&lt;/ul&gt;" style="rounded=0;whiteSpace=wrap;html=1;fillColor=none;align=left;" vertex="1" parent="1">
          <mxGeometry x="830" y="70" width="180" height="60" as="geometry" />
        </mxCell>
        <mxCell id="xQhjASEAg2ooTTKnkXVU-33" value="" style="edgeStyle=orthogonalEdgeStyle;rounded=0;orthogonalLoop=1;jettySize=auto;html=1;exitX=0.5;exitY=1;exitDx=0;exitDy=0;entryX=0;entryY=0.5;entryDx=0;entryDy=0;" edge="1" parent="1" source="xQhjASEAg2ooTTKnkXVU-24" target="xQhjASEAg2ooTTKnkXVU-9">
          <mxGeometry relative="1" as="geometry">
            <mxPoint x="20" y="410" as="sourcePoint" />
            <mxPoint x="-30" y="320" as="targetPoint" />
            <Array as="points">
              <mxPoint x="230" y="580" />
              <mxPoint x="-240" y="580" />
              <mxPoint x="-240" y="100" />
            </Array>
          </mxGeometry>
        </mxCell>
        <mxCell id="xQhjASEAg2ooTTKnkXVU-34" value="untuk" style="edgeLabel;html=1;align=center;verticalAlign=middle;resizable=0;points=[];" vertex="1" connectable="0" parent="xQhjASEAg2ooTTKnkXVU-33">
          <mxGeometry x="-0.0397" relative="1" as="geometry">
            <mxPoint x="291" as="offset" />
          </mxGeometry>
        </mxCell>
        <mxCell id="xQhjASEAg2ooTTKnkXVU-39" value="Pemantauan &amp;amp; Peringatan Dini" style="rounded=0;whiteSpace=wrap;html=1;fillColor=none;" vertex="1" parent="1">
          <mxGeometry x="450" y="360" width="120" height="60" as="geometry" />
        </mxCell>
        <mxCell id="xQhjASEAg2ooTTKnkXVU-43" value="" style="edgeStyle=orthogonalEdgeStyle;rounded=0;orthogonalLoop=1;jettySize=auto;html=1;exitX=0.5;exitY=1;exitDx=0;exitDy=0;entryX=0.75;entryY=1;entryDx=0;entryDy=0;" edge="1" parent="1" source="xQhjASEAg2ooTTKnkXVU-39" target="xQhjASEAg2ooTTKnkXVU-24">
          <mxGeometry relative="1" as="geometry">
            <mxPoint x="20" y="410" as="sourcePoint" />
            <mxPoint x="180" y="410" as="targetPoint" />
          </mxGeometry>
        </mxCell>
        <mxCell id="xQhjASEAg2ooTTKnkXVU-44" value="Memerlukan" style="edgeLabel;html=1;align=center;verticalAlign=middle;resizable=0;points=[];" vertex="1" connectable="0" parent="xQhjASEAg2ooTTKnkXVU-43">
          <mxGeometry x="-0.0397" relative="1" as="geometry">
            <mxPoint as="offset" />
          </mxGeometry>
        </mxCell>
      </root>
    </mxGraphModel>
  </diagram>
</mxfile>
